<svg width="18" height="18" viewBox="0 0 18 18" fill="none" xmlns="http://www.w3.org/2000/svg">
<g clip-path="url(#clip0_1522_525)">
<path d="M2.10748 2.1075L1.04248 3.165L2.74498 4.8675C1.95748 6.0525 1.49998 7.47 1.49998 9C1.49998 13.14 4.85998 16.5 8.99998 16.5C10.53 16.5 11.9475 16.0425 13.1325 15.255L14.835 16.9575L15.8925 15.9L2.10748 2.1075ZM8.99998 15C5.69248 15 2.99998 12.3075 2.99998 9C2.99998 7.89 3.30748 6.855 3.83998 5.955L12.045 14.16C11.145 14.6925 10.11 15 8.99998 15ZM5.95498 3.84L4.86748 2.745C6.05248 1.9575 7.46998 1.5 8.99998 1.5C13.14 1.5 16.5 4.86 16.5 9C16.5 10.53 16.0425 11.9475 15.255 13.1325L14.16 12.0375C14.6925 11.145 15 10.11 15 9C15 5.6925 12.3075 3 8.99998 3C7.88998 3 6.85498 3.3075 5.95498 3.84Z" fill="#CC343B"/>
</g>
<defs>
<clipPath id="clip0_1522_525">
<rect width="18" height="18" fill="white"/>
</clipPath>
</defs>
</svg>
